<svg width="18" height="26" viewBox="0 0 18 26" fill="none" xmlns="http://www.w3.org/2000/svg">
<path d="M12.7522 16.7011C12.4084 16.6324 12.0645 16.5865 11.7435 16.4948C11.1475 16.3573 10.6202 16.4719 10.1846 16.9075C9.95535 17.1367 9.70317 17.3431 9.45099 17.5265C9.06126 17.8016 8.67153 17.8245 8.28179 17.5265C8.00669 17.366 7.77744 17.1596 7.54818 16.9533C7.08967 16.5177 6.56239 16.3573 5.96633 16.5177C5.71415 16.5865 5.46197 16.6324 5.20979 16.6553C4.54496 16.747 4.20108 16.5636 3.97182 15.9446C3.8572 15.6466 3.74257 15.3485 3.65087 15.0505C3.49039 14.5691 3.19236 14.2481 2.71093 14.0876C2.38997 13.9959 2.06902 13.8813 1.77099 13.7438C1.19785 13.5145 0.991523 13.1477 1.08322 12.5287C1.12907 12.2536 1.17493 11.9785 1.2437 11.7034C1.38125 11.1303 1.2437 10.6259 0.831045 10.1903C0.647642 10.0069 0.487164 9.8006 0.326687 9.6172C-0.108896 9.04406 -0.108896 8.65433 0.326687 8.0812C0.464239 7.89779 0.601792 7.71439 0.762269 7.57684C1.28955 7.07248 1.38125 6.47642 1.19785 5.81158C1.12907 5.53648 1.08322 5.23845 1.0603 4.94042C1.01445 4.50484 1.2437 4.20681 1.63343 4.0234C1.93146 3.88585 2.22949 3.77123 2.55045 3.67952C3.12358 3.51905 3.51331 3.15224 3.67379 2.57911C3.76549 2.28108 3.88012 1.96012 3.99475 1.68502C4.20108 1.20358 4.54496 0.997254 5.07224 1.06603C5.3932 1.11188 5.73708 1.15773 6.05803 1.24943C6.60824 1.36406 7.06675 1.24943 7.4794 0.859702C7.68573 0.676299 7.89206 0.46997 8.12132 0.309493C8.6486 -0.103164 9.06126 -0.103164 9.58854 0.309493C9.86365 0.515821 10.1158 0.745075 10.368 0.974329C10.7348 1.29528 11.1475 1.36406 11.606 1.27236C11.9499 1.20358 12.2937 1.13481 12.6376 1.08896C13.142 1.02018 13.4859 1.20358 13.6922 1.68502C13.8297 2.00597 13.9444 2.34985 14.059 2.69373C14.2195 3.17517 14.5404 3.49612 15.0219 3.6566C15.3428 3.77122 15.6867 3.86293 16.0076 4.00048C16.5579 4.22973 16.7413 4.57361 16.6496 5.16967C16.6037 5.51355 16.5349 5.85744 16.4662 6.20132C16.3745 6.6369 16.4891 7.0037 16.7642 7.34758C16.9476 7.57684 17.1539 7.78317 17.3373 8.01242C17.8875 8.65433 17.8875 9.08991 17.3373 9.75475C17.1539 9.984 16.9476 10.1903 16.7642 10.4196C16.4662 10.7635 16.3974 11.1303 16.4662 11.5659C16.5349 11.9097 16.6037 12.2307 16.6496 12.5746C16.7413 13.2165 16.5579 13.5604 15.9389 13.8125C15.6179 13.9501 15.297 14.0418 14.9531 14.1564C14.5175 14.3169 14.2424 14.6149 14.0819 15.0505C13.9673 15.4173 13.8527 15.7612 13.6922 16.1051C13.5088 16.4948 13.2108 16.7011 12.7522 16.7011ZM15.0906 8.88358C15.0906 5.39893 12.2937 2.62496 8.78615 2.62496C5.37027 2.62496 2.57337 5.44478 2.5963 8.88358C2.5963 12.3682 5.3932 15.1422 8.90078 15.1422C12.3167 15.1422 15.1136 12.3224 15.0906 8.88358Z" fill="black"/>
<path d="M2.54998 15.0508C2.66461 15.2113 2.77923 15.3259 2.82508 15.4634C2.96264 15.7844 3.07726 16.1053 3.19189 16.4034C3.23774 16.5409 3.28359 16.6785 3.35237 16.816C3.62747 17.4809 4.04013 17.7101 4.75082 17.5955C5.16347 17.5267 5.57613 17.435 5.96586 17.3662C6.30974 17.2975 6.65362 17.3662 6.92873 17.5955C7.22676 17.8248 7.50186 18.0769 7.79989 18.3291C7.93744 18.4437 8.09792 18.5584 8.2584 18.6501C8.37302 18.7188 8.37303 18.7647 8.3501 18.8793C8.12085 19.7734 7.91452 20.6904 7.68526 21.5845C7.36431 22.8913 7.04335 24.2209 6.74532 25.5277C6.74532 25.5735 6.7224 25.6194 6.7224 25.6652C6.6307 26.0091 6.28682 26.1008 6.05756 25.8257C5.62198 25.3443 5.20932 24.8628 4.77374 24.3814C4.54449 24.1292 4.33816 23.8771 4.10891 23.6249C3.94843 23.4415 3.81087 23.4185 3.58162 23.5102C2.68753 23.8541 1.79344 24.198 0.899352 24.5648C0.738874 24.6336 0.601322 24.6336 0.463769 24.519C0.326217 24.4043 0.303292 24.2439 0.349143 24.0834C0.830575 22.0659 1.33493 20.0256 1.81637 18.0082C2.04562 17.0911 2.25195 16.1512 2.4812 15.2342C2.50413 15.2113 2.52705 15.1425 2.54998 15.0508Z" fill="#E71D35"/>
<path d="M15.1599 15.0967C15.2516 15.4864 15.3433 15.8761 15.435 16.2659C15.8247 17.8477 16.1915 19.4066 16.5583 20.9885C16.8105 22.0201 17.0627 23.0518 17.3148 24.0834C17.3607 24.2668 17.3378 24.4044 17.2002 24.5419C17.0627 24.6795 16.9022 24.6566 16.7417 24.5878C15.8705 24.2439 14.9994 23.9 14.1511 23.5791C13.8302 23.4644 13.7385 23.4874 13.5092 23.7395C12.9132 24.4044 12.3171 25.0921 11.7211 25.757C11.6981 25.7799 11.6523 25.8258 11.6294 25.8487C11.3772 26.1009 11.0333 26.0321 10.9645 25.6882C10.827 25.138 10.6894 24.5878 10.5519 24.0147C10.1392 22.3182 9.74947 20.6446 9.33681 18.9481C9.29096 18.7877 9.33681 18.7189 9.47436 18.6272C9.77239 18.4209 10.0246 18.1916 10.2997 17.9624C10.6665 17.6414 11.0333 17.3204 11.5606 17.3663C11.8815 17.3892 12.2025 17.4809 12.5234 17.5268C12.7985 17.5726 13.0966 17.6185 13.3946 17.6185C13.7156 17.6414 13.9907 17.4809 14.1511 17.2287C14.3116 16.9536 14.4262 16.6556 14.5409 16.3576C14.6555 16.0595 14.7701 15.7615 14.8848 15.4635C14.9535 15.3259 15.0452 15.2113 15.1369 15.0967C15.114 15.0967 15.1369 15.0967 15.1599 15.0967Z" fill="#E71D35"/>
<path d="M7.67428 10.3112C8.71877 9.28744 9.75209 8.27457 10.7743 7.27264C11.3737 6.68506 12.351 6.68502 12.9505 7.2726C12.4783 7.71531 12.0061 8.17816 11.5339 8.66112C10.4663 9.70754 9.37826 10.7741 8.31071 11.8205C7.92064 12.2028 7.48951 12.2028 7.09944 11.8205C6.3809 11.0961 5.64182 10.3917 4.90274 9.66729C4.8357 9.60158 4.83728 9.49317 4.90578 9.42898C5.05259 9.29142 5.19684 9.15349 5.3412 9.01388C5.63343 8.73126 6.09862 8.73445 6.3861 9.02191C6.80591 9.44169 7.24009 9.87146 7.67428 10.3112Z" fill="#E71D35"/>
</svg>
