<svg width="16" height="15" viewBox="0 0 16 15" fill="none" xmlns="http://www.w3.org/2000/svg">
<path fill-rule="evenodd" clip-rule="evenodd" d="M7.241 10.711C7.33396 10.804 7.44434 10.8777 7.56582 10.928C7.68731 10.9783 7.81752 11.0041 7.949 11.004C7.962 11.004 7.972 10.997 7.985 10.997L8 11C8.337 11 8.62 10.823 8.801 10.569L11.695 7.687C11.7882 7.59435 11.8621 7.48419 11.9126 7.36285C11.9631 7.24152 11.989 7.11141 11.989 6.98C11.989 6.84859 11.9631 6.71848 11.9126 6.59715C11.8621 6.47581 11.7882 6.36565 11.695 6.273C11.5068 6.08559 11.2521 5.98037 10.9865 5.98037C10.7209 5.98037 10.4662 6.08559 10.278 6.273L9 7.544V1C9 0.734784 8.89464 0.48043 8.70711 0.292893C8.51957 0.105357 8.26522 0 8 0C7.73478 0 7.48043 0.105357 7.29289 0.292893C7.10536 0.48043 7 0.734784 7 1V7.62L5.691 6.281C5.503 6.09365 5.24841 5.98845 4.983 5.98845C4.71759 5.98845 4.463 6.09365 4.275 6.281C4.18182 6.37365 4.10787 6.48381 4.0574 6.60515C4.00694 6.72648 3.98097 6.85659 3.98097 6.988C3.98097 7.11941 4.00694 7.24952 4.0574 7.37085C4.10787 7.49219 4.18182 7.60235 4.275 7.695L7.241 10.711ZM15 9C14.7348 9 14.4804 9.10536 14.2929 9.29289C14.1054 9.48043 14 9.73478 14 10V12C14 12.2652 13.8946 12.5196 13.7071 12.7071C13.5196 12.8946 13.2652 13 13 13H3C2.73478 13 2.48043 12.8946 2.29289 12.7071C2.10536 12.5196 2 12.2652 2 12V10C2 9.73478 1.89464 9.48043 1.70711 9.29289C1.51957 9.10536 1.26522 9 1 9C0.734784 9 0.48043 9.10536 0.292893 9.29289C0.105357 9.48043 0 9.73478 0 10L0 13C0 13.5304 0.210714 14.0391 0.585786 14.4142C0.960859 14.7893 1.46957 15 2 15H14C14.5304 15 15.0391 14.7893 15.4142 14.4142C15.7893 14.0391 16 13.5304 16 13V10C16 9.73478 15.8946 9.48043 15.7071 9.29289C15.5196 9.10536 15.2652 9 15 9Z" fill="black"/>
</svg>
