<svg width="21" height="28" viewBox="0 0 21 28" fill="none" xmlns="http://www.w3.org/2000/svg">
<path d="M13.6504 8.62355C13.3568 8.52569 13.0632 8.47677 12.7207 8.37891C12.6718 8.72141 12.476 8.96606 12.2314 9.11285C12.1335 9.16178 12.0357 9.25964 11.9378 9.25964C11.0082 9.65107 10.1274 9.65107 9.19777 9.25964C8.80633 9.11285 8.46383 8.8682 8.4149 8.37891C8.31704 8.37891 8.21918 8.37891 8.12132 8.42784C6.35986 8.77034 5.13662 10.3361 5.23448 12.1465C5.28341 12.9293 5.67485 13.4186 6.45772 13.6144C6.99594 13.7612 7.58309 13.7612 8.12132 13.7612C9.63813 13.7612 11.1549 13.7612 12.6718 13.7612C13.2589 13.7612 13.895 13.7611 14.4822 13.6633C15.314 13.5165 15.7543 13.0272 15.8522 12.2933C16.0479 10.6786 15.1182 9.16178 13.6504 8.62355Z" fill="#141414"/>
<path d="M6.60418 2.06727C6.65311 2.1162 6.75097 2.16513 6.84883 2.16513C6.99562 2.21406 6.99562 2.31192 6.89776 2.40978C6.75097 2.50764 6.75097 2.65443 6.84883 2.75229C6.89776 2.80121 6.89776 2.85014 6.89776 2.89907C6.84883 3.48623 6.84883 4.07338 6.75097 4.66053C6.70204 5.00304 6.75097 5.39448 6.89776 5.68806C6.89776 5.73698 6.94669 5.73698 6.99562 5.78591C7.09348 5.49234 7.24027 5.24769 7.19134 4.90518C7.14241 4.22017 7.09348 3.48623 7.04455 2.80121C7.04455 2.75228 7.09348 2.70336 7.09348 2.65443C7.19134 2.55657 7.19134 2.40978 7.09348 2.31192C7.04455 2.26299 7.04455 2.21406 6.99562 2.16513C6.99562 2.16513 7.04455 2.16513 7.04455 2.1162C7.2892 2.21406 7.58277 2.36085 7.82742 2.45871C7.87635 2.45871 7.87635 2.50764 7.87635 2.55657C7.87635 2.85014 7.87635 3.14372 7.87635 3.48623C7.87635 3.53516 7.87635 3.58409 7.87635 3.58409C7.58277 4.2691 7.6317 4.95411 7.82742 5.68806C8.121 6.66665 8.56136 7.54737 9.34423 8.23239C10.1271 8.9174 11.1057 8.9174 11.8886 8.23239C12.6225 7.64523 13.014 6.86236 13.3075 5.98163C13.5032 5.34555 13.65 4.66053 13.4543 4.02445C13.3075 3.58409 13.3075 3.19265 13.3075 2.75229C13.3075 2.70336 13.3075 2.70336 13.3075 2.65443C13.3075 2.55657 13.3565 2.50764 13.4543 2.45871C13.7968 2.31192 14.0904 2.16513 14.4329 2.01834C14.5308 1.96941 14.6776 1.96941 14.6776 1.7737C14.6776 1.62691 14.5308 1.57798 14.4329 1.57798C13.3075 1.08868 12.1821 0.599386 11.1057 0.110091C10.8121 -0.0366971 10.4696 -0.0366971 10.1271 0.110091C9.00173 0.599386 7.87635 1.08868 6.7999 1.57798C6.75097 1.57798 6.70204 1.62691 6.65311 1.67584C6.50632 1.87155 6.50632 1.96941 6.60418 2.06727ZM8.16993 4.70947C8.31672 4.31803 8.70815 4.17124 9.09959 4.31803C9.44209 4.46482 9.73567 4.61161 10.0782 4.75839C10.4207 4.90518 10.7143 4.90518 11.0568 4.75839C11.3503 4.61161 11.6929 4.51375 11.9864 4.36696C12.4757 4.17124 12.8672 4.31803 13.0139 4.85625C13.0629 5.00304 13.0629 5.14983 13.1118 5.34555C13.0629 5.5902 12.965 5.88377 12.8672 6.17735C12.6225 6.81343 12.3289 7.40059 11.8396 7.88988C11.0568 8.67276 10.1271 8.67276 9.29531 7.88988C8.61029 7.2538 8.21886 6.422 8.07207 5.49234C8.07207 5.19876 8.07207 4.95411 8.16993 4.70947Z" fill="#141414"/>
<path d="M14.5793 4.21983C15.9493 4.85591 17.1236 5.63878 18.1022 6.71523C20.1083 8.91706 20.989 11.5103 20.7933 14.4461C20.5487 18.703 17.6129 22.3727 13.6007 23.6448C13.405 23.6938 13.2582 23.8406 13.1603 23.9874C12.3285 25.2595 11.4478 26.5317 10.5671 27.8039C10.5181 27.8528 10.4692 27.9017 10.4203 27.9996C10.1756 27.6081 9.93097 27.2656 9.68632 26.8742C9.00131 25.8956 8.36523 24.8681 7.68021 23.8895C7.58236 23.7916 7.48449 23.6938 7.33771 23.6448C3.32549 22.2259 0.879012 19.4369 0.145069 15.2779C-0.637803 10.7275 1.80867 6.22594 6.01661 4.26876C6.06554 4.21983 6.1634 4.21983 6.26126 4.1709C5.96768 4.80698 6.06554 5.492 6.01661 6.12808C6.01661 6.17701 6.01661 6.17701 6.01661 6.22594C5.77196 6.56844 5.6741 6.95988 5.6741 7.40025C5.6741 7.44918 5.57624 7.4981 5.52732 7.54703C3.86371 8.91706 2.83619 10.6296 2.64047 12.7336C2.29797 16.0118 3.5212 18.654 6.31019 20.4155C11.0563 23.4002 17.3193 20.5623 18.2001 15.0332C18.6894 12.0485 17.7108 9.60207 15.4111 7.64489C15.2643 7.49811 15.1664 7.40025 15.1664 7.20453C15.1664 6.95988 15.0196 6.76416 14.9707 6.51951C14.9218 6.3238 14.8239 6.17701 14.8239 5.98129C14.775 5.44307 14.8729 4.85591 14.5793 4.21983Z" fill="#E71D35"/>
</svg>
