<svg width="18" height="28" viewBox="0 0 18 28" fill="none" xmlns="http://www.w3.org/2000/svg">
<path d="M8.55235 19.6573C7.97795 19.6573 7.37619 19.6573 6.80178 19.6573C6.20003 19.6573 5.87179 19.4385 5.68032 18.8641C5.07856 17.1135 4.64092 15.3082 4.34004 13.4756C4.03916 11.7797 3.82034 10.1112 3.82034 8.38801C3.82034 6.33657 4.50416 4.55864 5.78973 2.97219C6.55561 2.06955 7.32148 1.16691 8.11471 0.264272C8.38824 -0.06396 8.71647 -0.0913129 8.96264 0.209567C9.86528 1.24897 10.7953 2.28837 11.6432 3.38248C12.9835 5.10569 13.4211 7.10244 13.2844 9.2633C13.1203 11.9165 12.6553 14.5424 11.9714 17.1135C11.8073 17.7153 11.6159 18.2897 11.4244 18.8914C11.2603 19.4111 10.932 19.6573 10.3576 19.6573C9.72852 19.6573 9.15411 19.6573 8.55235 19.6573ZM8.55235 10.0018C9.81058 9.97447 10.8226 8.93507 10.8226 7.7042C10.7953 6.41862 9.78322 5.43393 8.49765 5.43393C7.26678 5.46128 6.25473 6.47333 6.25473 7.73155C6.25473 8.98977 7.29413 10.0292 8.55235 10.0018Z" fill="#141414"/>
<path d="M10.057 27.0429C9.97496 26.742 9.8929 26.4412 9.81085 26.1403C9.78349 26.0582 9.8382 25.9488 9.81085 25.8668C9.75614 25.73 9.67408 25.5385 9.59202 25.5112C9.48261 25.4838 9.26379 25.5659 9.20909 25.6753C8.96291 26.1676 8.74409 26.6873 8.55262 27.2344C8.47056 27.4532 8.47056 27.6994 8.44321 28.0003C7.92351 27.6447 7.70469 27.125 7.67734 26.5506C7.64998 26.0309 7.67734 25.4838 7.64998 24.9641C7.64998 24.7726 7.56793 24.5812 7.48587 24.3897C7.45852 24.3076 7.32175 24.2803 7.23969 24.2256C7.21234 24.3076 7.13028 24.4171 7.13028 24.4991C7.15764 24.8 7.21234 25.1009 7.23969 25.4018C7.2944 25.8394 7.2944 26.277 6.93882 26.66C6.66529 25.6753 5.98147 24.9094 5.81735 23.8974C5.65324 22.7759 6.3097 21.5177 7.23969 21.2168C7.26705 21.6544 7.23969 22.1194 7.32175 22.5571C7.40381 23.0221 7.67734 23.405 8.06027 23.7059C8.47056 24.0615 8.90821 24.4171 9.07232 25.0462C9.3185 24.6359 9.3732 24.2803 9.26379 23.8974C9.18173 23.5418 9.04497 23.2135 8.93556 22.8853C8.88085 22.6938 8.8535 22.5024 8.7988 22.2835C9.15438 22.2562 9.20909 22.475 9.34585 22.6665C9.42791 22.7759 9.50996 22.9127 9.61938 22.9127C9.72879 22.9127 9.8382 22.7759 9.92025 22.6938C10.1938 22.2835 10.1938 21.8459 10.0297 21.3536C10.7135 21.6544 11.0964 22.1468 11.2332 22.8306C11.3973 23.6512 11.2332 24.4444 10.9597 25.2376C10.7135 25.8668 10.4673 26.4959 10.1938 27.125C10.1391 27.0429 10.0844 27.0429 10.057 27.0429Z" fill="#E71D35"/>
<path d="M13.0111 16.8951C13.3394 15.3086 13.6403 13.7495 13.9411 12.1631C13.9958 12.2178 14.0779 12.2451 14.1326 12.2998C15.0079 13.1751 15.8832 14.0778 16.7858 14.9531C16.9773 15.1445 17.1414 15.3633 17.0593 15.6642C16.9773 15.9378 16.7585 16.0472 16.4576 16.1019C15.4455 16.3207 14.4608 16.5669 13.4488 16.7857C13.312 16.8404 13.1753 16.8677 13.0111 16.8951Z" fill="#141414"/>
<path d="M4.06697 16.9225C3.38315 16.7857 2.72669 16.6489 2.07022 16.5122C1.55052 16.4028 1.03082 16.2386 0.511122 16.1292C0.0187735 16.0198 -0.172695 15.5001 0.182889 15.1172C0.429063 14.8163 0.70259 14.5701 0.976117 14.2966C1.63258 13.6401 2.28905 12.9837 2.91816 12.3272C2.97286 12.2725 3.05492 12.2178 3.13698 12.1357C3.43786 13.7222 3.73874 15.2813 4.06697 16.9225Z" fill="#141414"/>
</svg>
