<svg width="39" height="23" viewBox="0 0 39 23" fill="none" xmlns="http://www.w3.org/2000/svg">
<path d="M15.9529 13.6992C16.0748 14.4796 16.6113 14.8941 17.2698 15.1624C18.7818 15.7721 20.2938 15.7721 21.7814 15.138C21.9521 15.0648 22.1228 14.9673 22.2692 14.8698C22.6837 14.6015 22.9764 14.2357 23.0495 13.6504C23.5617 13.7967 24.0738 13.8699 24.5616 14.065C27.0247 14.9917 28.5611 17.4792 28.2928 20.0886C28.1709 21.3567 27.4149 22.1128 26.0492 22.381C25.0493 22.5761 24.0494 22.5517 23.0495 22.5517C20.5377 22.5517 18.0258 22.5517 15.5139 22.5517C14.5872 22.5517 13.6605 22.5517 12.7581 22.3322C11.4656 22.0152 10.7828 21.2348 10.7096 19.8935C10.5145 16.8939 12.5143 14.3332 15.4651 13.7723C15.6115 13.7236 15.7822 13.7236 15.9529 13.6992Z" fill="#E71D35"/>
<path d="M13.5155 3.55444C13.5642 3.6276 13.613 3.70076 13.6618 3.74953C13.8813 3.92024 13.9057 4.13973 13.7106 4.35921C13.6618 4.40799 13.613 4.50554 13.613 4.5787C13.6862 5.7249 13.7837 6.89548 13.8569 8.04168C13.9057 8.52942 13.6862 8.9684 13.5155 9.45614C13.4423 9.35859 13.4179 9.3342 13.3935 9.28543C13.1497 8.72452 13.0765 8.16362 13.1497 7.55394C13.2472 6.57845 13.296 5.57857 13.3691 4.60308C13.3691 4.50554 13.3204 4.40799 13.2472 4.33483C13.0765 4.13973 13.1009 3.92024 13.296 3.77392C13.5399 3.60321 13.5155 3.45689 13.2472 3.35934C13.1253 3.31056 12.9789 3.26179 12.8814 3.16424C12.6863 3.0423 12.6863 2.84721 12.8814 2.70088C12.9546 2.65211 13.0521 2.60333 13.1497 2.55456C15.0031 1.74978 16.8565 0.945004 18.6856 0.164614C19.2221 -0.0548712 19.7342 -0.0548712 20.2707 0.164614C22.1242 0.969392 23.9776 1.74978 25.8066 2.55456C25.9773 2.62772 26.2212 2.6765 26.2212 2.92037C26.2212 3.18863 25.9773 3.21301 25.8066 3.31056C25.2701 3.55444 24.7336 3.79831 24.1727 4.01779C24.002 4.09095 23.9288 4.16411 23.9776 4.35921C23.9776 4.40799 23.9776 4.45676 23.9776 4.52992C23.9776 5.23715 23.9776 5.94438 24.1971 6.65161C24.5385 7.74904 24.319 8.84646 23.9776 9.9195C23.5142 11.3583 22.7826 12.6509 21.612 13.6507C20.2707 14.7726 18.6856 14.7726 17.3686 13.6507C16.0517 12.5289 15.2957 11.0901 14.8568 9.45614C14.5397 8.28555 14.5153 7.13935 14.9543 5.99316C14.9787 5.94438 14.9787 5.87122 14.9787 5.82245C14.9787 5.31031 14.9787 4.79818 14.9787 4.31044C14.9787 4.23728 14.9299 4.13973 14.8812 4.11534C14.4422 3.92024 14.0032 3.72515 13.5642 3.53005C13.5642 3.50566 13.5399 3.53005 13.5155 3.55444ZM23.7093 8.5782C23.6362 8.23678 23.6362 7.99291 23.563 7.74904C23.3191 6.89548 22.6607 6.60284 21.8559 6.94426C21.3438 7.16374 20.8316 7.38323 20.3195 7.60271C19.783 7.8222 19.2221 7.84658 18.6856 7.60271C18.149 7.35884 17.6125 7.11497 17.0516 6.89548C16.3932 6.62722 15.7835 6.87109 15.5152 7.55394C15.3445 7.94413 15.2713 8.3831 15.3689 8.79769C15.6615 10.3097 16.2956 11.6754 17.4174 12.7484C18.7343 14.0165 20.2951 14.0165 21.612 12.7484C22.4412 11.968 22.9777 10.9925 23.3435 9.94388C23.4898 9.45614 23.5874 8.9684 23.7093 8.5782Z" fill="#E71D35"/>
<path d="M4.10132 13.1387C4.27203 13.9191 4.85732 14.2117 5.49139 14.4312C6.44249 14.7238 7.41798 14.7238 8.39347 14.3824C9.1007 14.1385 9.39334 13.8459 9.6616 13.1387C10.6127 13.2362 11.4419 13.602 12.1735 14.2117C10.4176 15.7481 9.61283 17.6503 9.71038 19.9915C9.63722 19.9915 9.56406 20.0159 9.49089 20.0159C7.34482 20.0159 5.19874 20.0159 3.02828 20.0159C2.6137 20.0159 2.17473 19.9671 1.78454 19.8939C0.565176 19.6501 0.053044 19.0404 0.00426959 17.7966C-0.0932792 15.6506 1.49189 13.6264 3.61358 13.2362C3.7599 13.1874 3.90622 13.1874 4.10132 13.1387Z" fill="black"/>
<path d="M29.367 13.1631C29.4646 13.7484 29.8548 14.0898 30.3425 14.2849C31.5619 14.797 32.7568 14.797 33.9762 14.2605C34.4396 14.0654 34.8054 13.724 34.9029 13.1387C35.2931 13.2362 35.7077 13.3094 36.0735 13.4557C37.7806 14.0898 38.9512 15.7237 39 17.5528C39 17.821 39 18.0893 38.9268 18.3331C38.7317 19.2842 38.1464 19.7964 37.049 19.9427C36.5369 20.0159 36.0491 20.0403 35.537 20.0403C33.5372 20.0403 31.5131 20.0403 29.5133 20.0403C29.4402 20.0403 29.367 20.0403 29.2939 20.0403C29.3914 17.7235 28.611 15.7969 26.8307 14.2605C27.5624 13.602 28.3915 13.2606 29.367 13.1631Z" fill="black"/>
<path d="M2.22348 5.286C2.27225 5.33478 2.29664 5.40794 2.34542 5.43232C2.51613 5.57865 2.51613 5.70058 2.39419 5.87129C2.34542 5.94446 2.29664 6.04201 2.29664 6.13955C2.34542 7.01749 2.41858 7.89543 2.49174 8.77337C2.51613 9.16357 2.3698 9.4806 2.19909 9.82202C2.02838 9.50499 1.88206 9.18795 1.90645 8.82215C1.95522 8.01737 2.02838 7.21259 2.07716 6.4322C2.10154 6.21271 2.15032 6.01762 1.95522 5.82252C1.83328 5.70058 1.90645 5.55426 2.02838 5.45671C2.19909 5.286 2.19909 5.21284 1.97961 5.11529C1.83328 5.04213 1.6138 5.01774 1.6138 4.79826C1.6138 4.57877 1.83328 4.55438 1.97961 4.48122C3.36968 3.87154 4.78414 3.26186 6.17421 2.65218C6.63757 2.45708 7.10092 2.45708 7.53989 2.65218C8.92996 3.26186 10.32 3.87154 11.7101 4.45684C11.7589 4.48122 11.8077 4.48122 11.832 4.50561C11.9296 4.57877 12.0515 4.67632 12.0759 4.77387C12.0759 4.84703 11.954 4.96897 11.832 5.01774C11.3931 5.21284 10.9541 5.40794 10.5151 5.60304C10.3932 5.65181 10.32 5.72497 10.32 5.87129C10.32 6.21271 10.2956 6.55414 10.32 6.89556C10.3444 7.16382 10.4664 7.43208 10.5151 7.70034C10.7346 8.65144 10.5395 9.57815 10.2225 10.4561C9.85668 11.4316 9.34455 12.3095 8.53977 12.9924C7.44234 13.9435 6.1986 13.9435 5.12556 12.9924C4.02813 12.0413 3.44284 10.7731 3.12581 9.38305C2.9551 8.60266 3.02826 7.87105 3.27213 7.11504C3.36968 6.84678 3.27213 6.50536 3.3209 6.21272C3.39407 5.77375 3.22336 5.52987 2.80877 5.43232C2.61368 5.38355 2.41858 5.26161 2.22348 5.18845C2.27225 5.23723 2.24787 5.26161 2.22348 5.286ZM6.90582 13.1387C7.41796 13.1387 7.85693 12.9436 8.24712 12.6265C9.00312 12.0169 9.49087 11.2121 9.8079 10.3098C9.97861 9.84641 10.1493 9.38305 10.0762 8.87092C9.97861 8.01737 9.46648 7.50524 8.53977 7.94421C8.19835 8.09053 7.85693 8.23685 7.53989 8.38318C7.07653 8.60266 6.61318 8.60266 6.14982 8.38318C5.75962 8.21247 5.36943 8.04176 4.97923 7.87105C4.44272 7.65156 3.95497 7.84666 3.75987 8.38318C3.66233 8.67582 3.58916 9.04163 3.63794 9.33428C3.85742 10.5536 4.39394 11.6267 5.29627 12.4802C5.75962 12.8948 6.27176 13.1631 6.90582 13.1387Z" fill="black"/>
<path d="M27.4894 5.26141C27.5138 5.31018 27.5381 5.38335 27.5869 5.43212C27.7576 5.60283 27.782 5.72477 27.6113 5.89548C27.5625 5.94425 27.5381 6.01741 27.5381 6.06619C27.5869 6.96851 27.6601 7.84645 27.7332 8.74878C27.7576 9.13898 27.6113 9.4804 27.4406 9.89498C27.2699 9.50479 27.1236 9.16336 27.1479 8.79756C27.1967 8.04155 27.2455 7.28555 27.2943 6.52955C27.2943 6.38322 27.3187 6.26129 27.3187 6.11496C27.3187 6.0418 27.2699 5.94425 27.2455 5.87109C27.1236 5.70038 27.1479 5.55406 27.2943 5.43212C27.465 5.2858 27.4406 5.21264 27.2699 5.11509C27.1236 5.04193 26.8309 5.01754 26.8797 4.79805C26.9041 4.67612 27.1236 4.55418 27.2943 4.48102C28.6843 3.87134 30.0988 3.26166 31.4889 2.65198C31.9035 2.48127 32.318 2.45688 32.7326 2.65198C34.1715 3.26166 35.6103 3.89573 37.0248 4.50541C37.0735 4.52979 37.1223 4.52979 37.1711 4.57857C37.2443 4.65173 37.3418 4.72489 37.3418 4.79805C37.3418 4.87122 37.2443 4.96876 37.1711 5.01754C36.8541 5.16386 36.5614 5.33457 36.22 5.43212C35.7079 5.57844 35.5128 5.8467 35.5859 6.40761C35.6347 6.7978 35.6347 7.16361 35.7322 7.55381C36.0249 8.50491 35.8542 9.45601 35.5371 10.3827C35.147 11.5045 34.5617 12.5288 33.5618 13.236C32.6107 13.9433 31.5376 13.9433 30.5865 13.2116C29.5135 12.4069 28.9282 11.2851 28.538 10.0169C28.2454 9.04143 28.221 8.09033 28.5624 7.11484C28.7087 6.70026 28.6112 6.21251 28.6112 5.77354C28.6112 5.74916 28.5624 5.67599 28.538 5.67599C28.1966 5.52967 27.8552 5.38335 27.5138 5.23702C27.5138 5.23702 27.5138 5.26141 27.4894 5.26141ZM32.2936 13.1385C32.6107 13.1385 33.0497 12.9922 33.4642 12.6507C34.3178 11.9923 34.8299 11.09 35.1713 10.0657C35.3177 9.6755 35.4152 9.26091 35.3664 8.82194C35.2689 8.01717 34.7811 7.50503 33.8788 7.91962C33.5374 8.09033 33.1716 8.23665 32.8058 8.38297C32.3668 8.57807 31.9278 8.57807 31.4889 8.38297C31.0743 8.21226 30.6841 8.01717 30.2695 7.84646C29.733 7.62697 29.2209 7.79768 29.0501 8.35859C28.9526 8.67562 28.8794 9.01704 28.9282 9.33407C29.1477 10.5047 29.6598 11.5533 30.5378 12.4069C30.9767 12.8458 31.4889 13.1385 32.2936 13.1385Z" fill="black"/>
</svg>
